<svg xmlns="http://www.w3.org/2000/svg" viewBox="0 0 1400 860" width="1400" height="860">
  <defs>
    <!-- Background Gradients -->
    <linearGradient id="bgGrad" x1="0%" y1="0%" x2="100%" y2="100%">
      <stop offset="0%" stop-color="#09182A"/>
      <stop offset="50%" stop-color="#0E243D"/>
      <stop offset="100%" stop-color="#071220"/>
    </linearGradient>

    <!-- Header Gradient -->
    <linearGradient id="headerGrad" x1="0%" y1="0%" x2="100%" y2="0%">
      <stop offset="0%" stop-color="#2864C7" stop-opacity="0"/>
      <stop offset="20%" stop-color="#2864C7"/>
      <stop offset="80%" stop-color="#00D2FF"/>
      <stop offset="100%" stop-color="#00D2FF" stop-opacity="0"/>
    </linearGradient>

    <!-- Card Gradients -->
    <linearGradient id="cardGrad1" x1="0%" y1="0%" x2="100%" y2="100%">
      <stop offset="0%" stop-color="#122A48"/>
      <stop offset="100%" stop-color="#0D1E34"/>
    </linearGradient>

    <linearGradient id="cardGrad2" x1="0%" y1="0%" x2="100%" y2="100%">
      <stop offset="0%" stop-color="#102D4A"/>
      <stop offset="100%" stop-color="#0C2036"/>
    </linearGradient>

    <linearGradient id="cardGrad3" x1="0%" y1="0%" x2="100%" y2="100%">
      <stop offset="0%" stop-color="#142F50"/>
      <stop offset="100%" stop-color="#0E223B"/>
    </linearGradient>

    <linearGradient id="cardGrad4" x1="0%" y1="0%" x2="100%" y2="100%">
      <stop offset="0%" stop-color="#0E3345"/>
      <stop offset="100%" stop-color="#0A2230"/>
    </linearGradient>

    <linearGradient id="cardGrad5" x1="0%" y1="0%" x2="100%" y2="100%">
      <stop offset="0%" stop-color="#1A2D54"/>
      <stop offset="100%" stop-color="#111E3A"/>
    </linearGradient>

    <linearGradient id="cardGrad6" x1="0%" y1="0%" x2="100%" y2="100%">
      <stop offset="0%" stop-color="#133842"/>
      <stop offset="100%" stop-color="#0C242C"/>
    </linearGradient>

    <!-- Flow Arrow Gradients -->
    <linearGradient id="flowRight" x1="0%" y1="0%" x2="100%" y2="0%">
      <stop offset="0%" stop-color="#2864C7"/>
      <stop offset="100%" stop-color="#00D2FF"/>
    </linearGradient>

    <linearGradient id="flowLeft" x1="0%" y1="0%" x2="100%" y2="0%">
      <stop offset="0%" stop-color="#00D2FF"/>
      <stop offset="100%" stop-color="#0B8A84"/>
    </linearGradient>

    <linearGradient id="flowTurn" x1="0%" y1="0%" x2="0%" y2="100%">
      <stop offset="0%" stop-color="#00D2FF"/>
      <stop offset="100%" stop-color="#0B8A84"/>
    </linearGradient>

    <!-- Marker Arrowheads -->
    <marker id="arrowRight" markerWidth="8" markerHeight="8" refX="6" refY="4" orient="auto">
      <path d="M 1 1 L 7 4 L 1 7 Z" fill="#00D2FF"/>
    </marker>
    <marker id="arrowLeft" markerWidth="8" markerHeight="8" refX="6" refY="4" orient="auto">
      <path d="M 7 1 L 1 4 L 7 7 Z" fill="#00D2FF"/>
    </marker>
    <marker id="arrowDown" markerWidth="8" markerHeight="8" refX="4" refY="6" orient="auto">
      <path d="M 1 1 L 4 7 L 7 1 Z" fill="#00D2FF"/>
    </marker>

    <!-- Filters -->
    <filter id="shadow" x="-10%" y="-10%" width="120%" height="120%">
      <feDropShadow dx="0" dy="6" stdDeviation="8" flood-color="#000000" flood-opacity="0.45"/>
    </filter>
    <filter id="glow" x="-20%" y="-20%" width="140%" height="140%">
      <feGaussianBlur stdDeviation="4" result="blur"/>
      <feComposite in="SourceGraphic" in2="blur" operator="over"/>
    </filter>

    <!-- Background Pattern -->
    <pattern id="gridPattern" width="40" height="40" patternUnits="userSpaceOnUse">
      <path d="M 40 0 L 0 0 0 40" fill="none" stroke="#163152" stroke-width="0.5" opacity="0.4"/>
    </pattern>
    <pattern id="dotPattern" width="20" height="20" patternUnits="userSpaceOnUse">
      <circle cx="10" cy="10" r="0.8" fill="#2864C7" opacity="0.2"/>
    </pattern>
  </defs>

  <!-- ================= BACKGROUND ================= -->
  <rect width="1400" height="860" fill="url(#bgGrad)"/>
  <rect width="1400" height="860" fill="url(#gridPattern)"/>
  <rect width="1400" height="860" fill="url(#dotPattern)"/>

  <!-- Radial Glow Accents -->
  <ellipse cx="200" cy="220" rx="350" ry="250" fill="#2864C7" opacity="0.06"/>
  <ellipse cx="1200" cy="350" rx="350" ry="250" fill="#00D2FF" opacity="0.05"/>
  <ellipse cx="300" cy="650" rx="350" ry="250" fill="#0B8A84" opacity="0.06"/>

  <!-- Top Decorative Line -->
  <rect x="0" y="0" width="1400" height="3" fill="url(#headerGrad)"/>

  <!-- ================= HEADER SECTION ================= -->
  <g transform="translate(60, 45)">
    <!-- Pill Badge -->
    <rect x="0" y="0" width="185" height="26" rx="13" fill="#132F52" stroke="#2864C7" stroke-width="1"/>
    <circle cx="14" cy="13" r="4" fill="#00D2FF" filter="url(#glow)"/>
    <text x="26" y="17" font-family="'Segoe UI', 'Helvetica Neue', Arial, sans-serif" font-size="11" font-weight="700" fill="#80D0FF" letter-spacing="1.5">PIPELINE END-TO-END</text>

    <!-- Main Title -->
    <text x="0" y="58" font-family="'Segoe UI', 'Helvetica Neue', Arial, sans-serif" font-size="28" font-weight="800" fill="#FFFFFF" letter-spacing="0.5">
      Fluxo do Documento: Da Ingestão à Evidência Auditável
    </text>

    <!-- Subtitle -->
    <text x="0" y="82" font-family="'Segoe UI', 'Helvetica Neue', Arial, sans-serif" font-size="13.5" font-weight="400" fill="#8FAFCF">
      Ciclo analítico completo para apólices D&amp;O: validação criptográfica, extração híbrida, segmentação regulatória e síntese comparativa.
    </text>
  </g>

  <!-- ================= ROW 1: INGESTION -> EXTRACTION -> IDENTIFICATION ================= -->

  <!-- CARD 01: RECEPTION -->
  <g transform="translate(60, 160)" filter="url(#shadow)">
    <!-- Card Base -->
    <rect width="360" height="260" rx="12" fill="url(#cardGrad1)" stroke="#265287" stroke-width="1.5"/>

    <!-- Top Accent Bar -->
    <rect x="0" y="0" width="360" height="5" rx="2" fill="#2864C7"/>

    <!-- Step Number & Category -->
    <rect x="20" y="20" width="36" height="24" rx="6" fill="#1C3F6E"/>
    <text x="38" y="36" font-family="'Segoe UI', Arial, sans-serif" font-size="11.5" font-weight="800" fill="#00D2FF" text-anchor="middle">01</text>
    <text x="66" y="36" font-family="'Segoe UI', Arial, sans-serif" font-size="11" font-weight="700" fill="#6A97CC" letter-spacing="1.2">INGESTÃO &amp; VALIDAÇÃO</text>

    <!-- Agent Title -->
    <text x="20" y="70" font-family="'Segoe UI', Arial, sans-serif" font-size="18" font-weight="700" fill="#FFFFFF">Reception Agent</text>
    <text x="20" y="88" font-family="'Courier New', monospace" font-size="11" fill="#5890D0">agents/reception_agent.py</text>

    <!-- Divider -->
    <line x1="20" y1="102" x2="340" y2="102" stroke="#1D3E66" stroke-width="1"/>

    <!-- Features / Bullet points -->
    <g transform="translate(20, 120)">
      <circle cx="5" cy="5" r="3" fill="#2864C7"/>
      <text x="16" y="9" font-family="'Segoe UI', Arial, sans-serif" font-size="12" fill="#D3E2F2">Magic Bytes (%PDF-, PNG, JPG)</text>

      <circle cx="5" cy="27" r="3" fill="#2864C7"/>
      <text x="16" y="31" font-family="'Segoe UI', Arial, sans-serif" font-size="12" fill="#D3E2F2">Deduplicação atômica via hash MD5</text>

      <circle cx="5" cy="49" r="3" fill="#2864C7"/>
      <text x="16" y="53" font-family="'Segoe UI', Arial, sans-serif" font-size="12" fill="#D3E2F2">Validação de cota e teto de 30 MB</text>
    </g>

    <!-- Bottom Badges -->
    <g transform="translate(20, 215)">
      <rect x="0" y="0" width="85" height="22" rx="4" fill="#0B2544" stroke="#1D4A7D" stroke-width="1"/>
      <text x="42" y="15" font-family="'Segoe UI', Arial, sans-serif" font-size="10.5" font-weight="600" fill="#8BB8EB" text-anchor="middle">Security First</text>

      <rect x="95" y="0" width="90" height="22" rx="4" fill="#0B2544" stroke="#1D4A7D" stroke-width="1"/>
      <text x="140" y="15" font-family="'Segoe UI', Arial, sans-serif" font-size="10.5" font-weight="600" fill="#8BB8EB" text-anchor="middle">Fast Rejection</text>

      <rect x="195" y="0" width="85" height="22" rx="4" fill="#0B2544" stroke="#1D4A7D" stroke-width="1"/>
      <text x="237" y="15" font-family="'Segoe UI', Arial, sans-serif" font-size="10.5" font-weight="600" fill="#8BB8EB" text-anchor="middle">Cache Check</text>
    </g>
  </g>

  <!-- CONNECTOR 1 -> 2 -->
  <g transform="translate(420, 280)">
    <line x1="10" y1="10" x2="85" y2="10" stroke="url(#flowRight)" stroke-width="3" stroke-dasharray="6 4"/>
    <polygon points="90,10 80,5 80,15" fill="#00D2FF"/>
  </g>

  <!-- CARD 02: EXTRACTOR -->
  <g transform="translate(520, 160)" filter="url(#shadow)">
    <!-- Card Base -->
    <rect width="360" height="260" rx="12" fill="url(#cardGrad2)" stroke="#22598F" stroke-width="1.5"/>

    <!-- Top Accent Bar -->
    <rect x="0" y="0" width="360" height="5" rx="2" fill="#00D2FF"/>

    <!-- Step Number & Category -->
    <rect x="20" y="20" width="36" height="24" rx="6" fill="#13416B"/>
    <text x="38" y="36" font-family="'Segoe UI', Arial, sans-serif" font-size="11.5" font-weight="800" fill="#00D2FF" text-anchor="middle">02</text>
    <text x="66" y="36" font-family="'Segoe UI', Arial, sans-serif" font-size="11" font-weight="700" fill="#58A3E0" letter-spacing="1.2">EXTRAÇÃO MULTIMODAL</text>

    <!-- Agent Title -->
    <text x="20" y="70" font-family="'Segoe UI', Arial, sans-serif" font-size="18" font-weight="700" fill="#FFFFFF">Extractor Agent</text>
    <text x="20" y="88" font-family="'Courier New', monospace" font-size="11" fill="#5890D0">agents/extractor_agent.py</text>

    <!-- Divider -->
    <line x1="20" y1="102" x2="340" y2="102" stroke="#1B426B" stroke-width="1"/>

    <!-- Features / Bullet points -->
    <g transform="translate(20, 120)">
      <circle cx="5" cy="5" r="3" fill="#00D2FF"/>
      <text x="16" y="9" font-family="'Segoe UI', Arial, sans-serif" font-size="12" fill="#D3E2F2">PDF Digital: pdfplumber nativo e veloz</text>

      <circle cx="5" cy="27" r="3" fill="#00D2FF"/>
      <text x="16" y="31" font-family="'Segoe UI', Arial, sans-serif" font-size="12" fill="#D3E2F2">Online: Gemini 2.0 Multimodal Vision</text>

      <circle cx="5" cy="49" r="3" fill="#00D2FF"/>
      <text x="16" y="53" font-family="'Segoe UI', Arial, sans-serif" font-size="12" fill="#D3E2F2">Offline: PyMuPDF + Tesseract C-bindings</text>
    </g>

    <!-- Bottom Badges -->
    <g transform="translate(20, 215)">
      <rect x="0" y="0" width="85" height="22" rx="4" fill="#0B2844" stroke="#17507F" stroke-width="1"/>
      <text x="42" y="15" font-family="'Segoe UI', Arial, sans-serif" font-size="10.5" font-weight="600" fill="#71BFF0" text-anchor="middle">pdfplumber</text>

      <rect x="95" y="0" width="100" height="22" rx="4" fill="#0B2844" stroke="#17507F" stroke-width="1"/>
      <text x="145" y="15" font-family="'Segoe UI', Arial, sans-serif" font-size="10.5" font-weight="600" fill="#71BFF0" text-anchor="middle">Gemini Vision</text>

      <rect x="205" y="0" width="95" height="22" rx="4" fill="#0B2844" stroke="#17507F" stroke-width="1"/>
      <text x="252" y="15" font-family="'Segoe UI', Arial, sans-serif" font-size="10.5" font-weight="600" fill="#71BFF0" text-anchor="middle">OCR Local por</text>
    </g>
  </g>

  <!-- CONNECTOR 2 -> 3 -->
  <g transform="translate(880, 280)">
    <line x1="10" y1="10" x2="85" y2="10" stroke="url(#flowRight)" stroke-width="3" stroke-dasharray="6 4"/>
    <polygon points="90,10 80,5 80,15" fill="#00D2FF"/>
  </g>

  <!-- CARD 03: IDENTIFIER -->
  <g transform="translate(980, 160)" filter="url(#shadow)">
    <!-- Card Base -->
    <rect width="360" height="260" rx="12" fill="url(#cardGrad3)" stroke="#2A5C94" stroke-width="1.5"/>

    <!-- Top Accent Bar -->
    <rect x="0" y="0" width="360" height="5" rx="2" fill="#3B82F6"/>

    <!-- Step Number & Category -->
    <rect x="20" y="20" width="36" height="24" rx="6" fill="#1C406E"/>
    <text x="38" y="36" font-family="'Segoe UI', Arial, sans-serif" font-size="11.5" font-weight="800" fill="#00D2FF" text-anchor="middle">03</text>
    <text x="66" y="36" font-family="'Segoe UI', Arial, sans-serif" font-size="11" font-weight="700" fill="#71A5DE" letter-spacing="1.2">SEGMENTAÇÃO SUSEP</text>

    <!-- Agent Title -->
    <text x="20" y="70" font-family="'Segoe UI', Arial, sans-serif" font-size="18" font-weight="700" fill="#FFFFFF">Identifier Agent</text>
    <text x="20" y="88" font-family="'Courier New', monospace" font-size="11" fill="#5890D0">agents/identifier_agent.py</text>

    <!-- Divider -->
    <line x1="20" y1="102" x2="340" y2="102" stroke="#1E4472" stroke-width="1"/>

    <!-- Features / Bullet points -->
    <g transform="translate(20, 120)">
      <circle cx="5" cy="5" r="3" fill="#3B82F6"/>
      <text x="16" y="9" font-family="'Segoe UI', Arial, sans-serif" font-size="12" fill="#D3E2F2">Circular SUSEP 637/2021 (Ramo 0378)</text>

      <circle cx="5" cy="27" r="3" fill="#3B82F6"/>
      <text x="16" y="31" font-family="'Segoe UI', Arial, sans-serif" font-size="12" fill="#D3E2F2">Detecção de LMG, Franquias e POS</text>

      <circle cx="5" cy="49" r="3" fill="#3B82F6"/>
      <text x="16" y="53" font-family="'Segoe UI', Arial, sans-serif" font-size="12" fill="#D3E2F2">Separação de Cláusulas e Exclusões</text>
    </g>

    <!-- Bottom Badges -->
    <g transform="translate(20, 215)">
      <rect x="0" y="0" width="100" height="22" rx="4" fill="#0D274A" stroke="#225492" stroke-width="1"/>
      <text x="50" y="15" font-family="'Segoe UI', Arial, sans-serif" font-size="10.5" font-weight="600" fill="#90BAED" text-anchor="middle">Circular 637</text>

      <rect x="110" y="0" width="95" height="22" rx="4" fill="#0D274A" stroke="#225492" stroke-width="1"/>
      <text x="157" y="15" font-family="'Segoe UI', Arial, sans-serif" font-size="10.5" font-weight="600" fill="#90BAED" text-anchor="middle">D&amp;O Canonical</text>

      <rect x="215" y="0" width="90" height="22" rx="4" fill="#0D274A" stroke="#225492" stroke-width="1"/>
      <text x="260" y="15" font-family="'Segoe UI', Arial, sans-serif" font-size="10.5" font-weight="600" fill="#90BAED" text-anchor="middle">Regex / LLM</text>
    </g>
  </g>

  <!-- ================= U-TURN CONNECTOR (ROW 1 -> ROW 2) ================= -->
  <g transform="translate(1160, 420)">
    <path d="M 0 10 L 0 50 A 25 25 0 0 1 -25 75 L -40 75" fill="none" stroke="url(#flowTurn)" stroke-width="3" stroke-dasharray="6 4"/>
    <polygon points="-45,75 -35,70 -35,80" fill="#00D2FF"/>
  </g>

  <!-- ================= ROW 2: STRUCTURER -> COMPARATOR -> REPORTER ================= -->

  <!-- CARD 04: STRUCTURER -->
  <g transform="translate(980, 510)" filter="url(#shadow)">
    <!-- Card Base -->
    <rect width="360" height="260" rx="12" fill="url(#cardGrad4)" stroke="#16666E" stroke-width="1.5"/>

    <!-- Top Accent Bar -->
    <rect x="0" y="0" width="360" height="5" rx="2" fill="#00E599"/>

    <!-- Step Number & Category -->
    <rect x="20" y="20" width="36" height="24" rx="6" fill="#0D3F42"/>
    <text x="38" y="36" font-family="'Segoe UI', Arial, sans-serif" font-size="11.5" font-weight="800" fill="#00E599" text-anchor="middle">04</text>
    <text x="66" y="36" font-family="'Segoe UI', Arial, sans-serif" font-size="11" font-weight="700" fill="#38C694" letter-spacing="1.2">ESTRUTURAÇÃO &amp; BANCO</text>

    <!-- Agent Title -->
    <text x="20" y="70" font-family="'Segoe UI', Arial, sans-serif" font-size="18" font-weight="700" fill="#FFFFFF">Structurer Agent</text>
    <text x="20" y="88" font-family="'Courier New', monospace" font-size="11" fill="#3DBB9E">agents/structurer_agent.py</text>

    <!-- Divider -->
    <line x1="20" y1="102" x2="340" y2="102" stroke="#12494E" stroke-width="1"/>

    <!-- Features / Bullet points -->
    <g transform="translate(20, 120)">
      <circle cx="5" cy="5" r="3" fill="#00E599"/>
      <text x="16" y="9" font-family="'Segoe UI', Arial, sans-serif" font-size="12" fill="#D3E2F2">Validação estrita com Pydantic v2</text>

      <circle cx="5" cy="27" r="3" fill="#00E599"/>
      <text x="16" y="31" font-family="'Segoe UI', Arial, sans-serif" font-size="12" fill="#D3E2F2">Normalização: BRL, datas ISO e taxas</text>

      <circle cx="5" cy="49" r="3" fill="#00E599"/>
      <text x="16" y="53" font-family="'Segoe UI', Arial, sans-serif" font-size="12" fill="#D3E2F2">Persistência atômica no SQLite (apolices.db)</text>
    </g>

    <!-- Bottom Badges -->
    <g transform="translate(20, 215)">
      <rect x="0" y="0" width="90" height="22" rx="4" fill="#092928" stroke="#125A54" stroke-width="1"/>
      <text x="45" y="15" font-family="'Segoe UI', Arial, sans-serif" font-size="10.5" font-weight="600" fill="#6EE7B7" text-anchor="middle">Pydantic v2</text>

      <rect x="100" y="0" width="85" height="22" rx="4" fill="#092928" stroke="#125A54" stroke-width="1"/>
      <text x="142" y="15" font-family="'Segoe UI', Arial, sans-serif" font-size="10.5" font-weight="600" fill="#6EE7B7" text-anchor="middle">ApoliceDAO</text>

      <rect x="195" y="0" width="85" height="22" rx="4" fill="#092928" stroke="#125A54" stroke-width="1"/>
      <text x="237" y="15" font-family="'Segoe UI', Arial, sans-serif" font-size="10.5" font-weight="600" fill="#6EE7B7" text-anchor="middle">SQLite ACID</text>
    </g>
  </g>

  <!-- CONNECTOR 4 <- 5 -->
  <g transform="translate(880, 630)">
    <line x1="90" y1="10" x2="15" y2="10" stroke="url(#flowLeft)" stroke-width="3" stroke-dasharray="6 4"/>
    <polygon points="10,10 20,5 20,15" fill="#00D2FF"/>
  </g>

  <!-- CARD 05: COMPARATOR -->
  <g transform="translate(520, 510)" filter="url(#shadow)">
    <!-- Card Base -->
    <rect width="360" height="260" rx="12" fill="url(#cardGrad5)" stroke="#304C82" stroke-width="1.5"/>

    <!-- Top Accent Bar -->
    <rect x="0" y="0" width="360" height="5" rx="2" fill="#D4A843"/>

    <!-- Step Number & Category -->
    <rect x="20" y="20" width="36" height="24" rx="6" fill="#3D371F"/>
    <text x="38" y="36" font-family="'Segoe UI', Arial, sans-serif" font-size="11.5" font-weight="800" fill="#FBBF24" text-anchor="middle">05</text>
    <text x="66" y="36" font-family="'Segoe UI', Arial, sans-serif" font-size="11" font-weight="700" fill="#EAB308" letter-spacing="1.2">CONFRONTO ANALÍTICO</text>

    <!-- Agent Title -->
    <text x="20" y="70" font-family="'Segoe UI', Arial, sans-serif" font-size="18" font-weight="700" fill="#FFFFFF">Comparator Agent</text>
    <text x="20" y="88" font-family="'Courier New', monospace" font-size="11" fill="#EAB308">agents/comparator_agent.py</text>

    <!-- Divider -->
    <line x1="20" y1="102" x2="340" y2="102" stroke="#36395E" stroke-width="1"/>

    <!-- Features / Bullet points -->
    <g transform="translate(20, 120)">
      <circle cx="5" cy="5" r="3" fill="#FBBF24"/>
      <text x="16" y="9" font-family="'Segoe UI', Arial, sans-serif" font-size="12" fill="#D3E2F2">Cruzamento: Apólice A vs Apólice B</text>

      <circle cx="5" cy="27" r="3" fill="#FBBF24"/>
      <text x="16" y="31" font-family="'Segoe UI', Arial, sans-serif" font-size="12" fill="#D3E2F2">Jaccard Similarity e diff semântico</text>

      <circle cx="5" cy="49" r="3" fill="#FBBF24"/>
      <text x="16" y="53" font-family="'Segoe UI', Arial, sans-serif" font-size="12" fill="#D3E2F2">Assimetrias de LMG, franquias e prazos</text>
    </g>

    <!-- Bottom Badges -->
    <g transform="translate(20, 215)">
      <rect x="0" y="0" width="105" height="22" rx="4" fill="#2E2813" stroke="#68541D" stroke-width="1"/>
      <text x="52" y="15" font-family="'Segoe UI', Arial, sans-serif" font-size="10.5" font-weight="600" fill="#FDE68A" text-anchor="middle">Jaccard Score</text>

      <rect x="115" y="0" width="90" height="22" rx="4" fill="#2E2813" stroke="#68541D" stroke-width="1"/>
      <text x="160" y="15" font-family="'Segoe UI', Arial, sans-serif" font-size="10.5" font-weight="600" fill="#FDE68A" text-anchor="middle">Semantic Diff</text>

      <rect x="215" y="0" width="90" height="22" rx="4" fill="#2E2813" stroke="#68541D" stroke-width="1"/>
      <text x="260" y="15" font-family="'Segoe UI', Arial, sans-serif" font-size="10.5" font-weight="600" fill="#FDE68A" text-anchor="middle">Gap Analysis</text>
    </g>
  </g>

  <!-- CONNECTOR 5 <- 6 -->
  <g transform="translate(420, 630)">
    <line x1="90" y1="10" x2="15" y2="10" stroke="url(#flowLeft)" stroke-width="3" stroke-dasharray="6 4"/>
    <polygon points="10,10 20,5 20,15" fill="#00D2FF"/>
  </g>

  <!-- CARD 06: REPORTER -->
  <g transform="translate(60, 510)" filter="url(#shadow)">
    <!-- Card Base -->
    <rect width="360" height="260" rx="12" fill="url(#cardGrad6)" stroke="#195562" stroke-width="1.5"/>

    <!-- Top Accent Bar -->
    <rect x="0" y="0" width="360" height="5" rx="2" fill="#0B8A84"/>

    <!-- Step Number & Category -->
    <rect x="20" y="20" width="36" height="24" rx="6" fill="#0E3D3C"/>
    <text x="38" y="36" font-family="'Segoe UI', Arial, sans-serif" font-size="11.5" font-weight="800" fill="#2DD4BF" text-anchor="middle">06</text>
    <text x="66" y="36" font-family="'Segoe UI', Arial, sans-serif" font-size="11" font-weight="700" fill="#2DD4BF" letter-spacing="1.2">SÍNTESE &amp; AUDITORIA</text>

    <!-- Agent Title -->
    <text x="20" y="70" font-family="'Segoe UI', Arial, sans-serif" font-size="18" font-weight="700" fill="#FFFFFF">Reporter Agent</text>
    <text x="20" y="88" font-family="'Courier New', monospace" font-size="11" fill="#2DD4BF">agents/reporter_agent.py</text>

    <!-- Divider -->
    <line x1="20" y1="102" x2="340" y2="102" stroke="#134346" stroke-width="1"/>

    <!-- Features / Bullet points -->
    <g transform="translate(20, 120)">
      <circle cx="5" cy="5" r="3" fill="#2DD4BF"/>
      <text x="16" y="9" font-family="'Segoe UI', Arial, sans-serif" font-size="12" fill="#D3E2F2">Parecer Executivo D&amp;O narrativo</text>

      <circle cx="5" cy="27" r="3" fill="#2DD4BF"/>
      <text x="16" y="31" font-family="'Segoe UI', Arial, sans-serif" font-size="12" fill="#D3E2F2">Rastreabilidade integral (EvidenceItem)</text>

      <circle cx="5" cy="49" r="3" fill="#2DD4BF"/>
      <text x="16" y="53" font-family="'Segoe UI', Arial, sans-serif" font-size="12" fill="#D3E2F2">Exportação em Markdown e JSON nativo</text>
    </g>

    <!-- Bottom Badges -->
    <g transform="translate(20, 215)">
      <rect x="0" y="0" width="95" height="22" rx="4" fill="#092B2F" stroke="#10575B" stroke-width="1"/>
      <text x="47" y="15" font-family="'Segoe UI', Arial, sans-serif" font-size="10.5" font-weight="600" fill="#99F6E4" text-anchor="middle">EvidenceItem</text>

      <rect x="105" y="0" width="85" height="22" rx="4" fill="#092B2F" stroke="#10575B" stroke-width="1"/>
      <text x="147" y="15" font-family="'Segoe UI', Arial, sans-serif" font-size="10.5" font-weight="600" fill="#99F6E4" text-anchor="middle">Audit Trail</text>

      <rect x="200" y="0" width="85" height="22" rx="4" fill="#092B2F" stroke="#10575B" stroke-width="1"/>
      <text x="242" y="15" font-family="'Segoe UI', Arial, sans-serif" font-size="10.5" font-weight="600" fill="#99F6E4" text-anchor="middle">JSON / MD</text>
    </g>
  </g>

  <!-- ================= BOTTOM STATUS BAR ================= -->
  <g transform="translate(60, 800)">
    <rect width="1280" height="34" rx="8" fill="#0A1828" stroke="#163152" stroke-width="1"/>

    <text x="25" y="21" font-family="'Segoe UI', Arial, sans-serif" font-size="11" font-weight="700" fill="#5885B5">STACK INTEGRADA:</text>

    <text x="160" y="21" font-family="'Segoe UI', Arial, sans-serif" font-size="11" fill="#A0C0E0">LangGraph (StateGraph)</text>
    <circle cx="310" cy="17" r="2.5" fill="#2864C7"/>

    <text x="330" y="21" font-family="'Segoe UI', Arial, sans-serif" font-size="11" fill="#A0C0E0">Pydantic v2 (ApoliceDAO)</text>
    <circle cx="495" cy="17" r="2.5" fill="#2864C7"/>

    <text x="515" y="21" font-family="'Segoe UI', Arial, sans-serif" font-size="11" fill="#A0C0E0">Gemini 2.0 Flash / Vision</text>
    <circle cx="685" cy="17" r="2.5" fill="#2864C7"/>

    <text x="705" y="21" font-family="'Segoe UI', Arial, sans-serif" font-size="11" fill="#A0C0E0">PyMuPDF / Tesseract C-bindings</text>
    <circle cx="910" cy="17" r="2.5" fill="#2864C7"/>

    <text x="930" y="21" font-family="'Segoe UI', Arial, sans-serif" font-size="11" fill="#A0C0E0">SQLite 3 (apolices.db)</text>
    <circle cx="1080" cy="17" r="2.5" fill="#2864C7"/>

    <text x="1100" y="21" font-family="'Segoe UI', Arial, sans-serif" font-size="11" font-weight="600" fill="#00D2FF">100% Offline Capable</text>
  </g>
</svg>
